<?xml version="1.0" encoding="UTF-8"?><svg id="Layer_1" xmlns="http://www.w3.org/2000/svg" viewBox="0 0 190.81 251.69"><defs><style>.cls-1{fill:#797979;}.cls-2{fill:#fff;}.cls-3{fill:#4e4e4e;}.cls-4{fill:#9e9e9e;}</style></defs><rect class="cls-2" x="23.08" y="104.86" width="144.52" height="54.48"/><path class="cls-4" d="M190.81,114.62c-.21,7.38-.28,14.78-.67,22.15-.81,15.55-2.73,30.94-6.92,45.99-3.79,13.62-9.27,26.46-17.93,37.77-11.41,14.92-26.44,24.17-44.64,28.44-10.27,2.41-20.69,3.04-31.18,2.6-11.86-.5-23.39-2.68-34.32-7.49-14.41-6.33-25.62-16.35-34.05-29.56-8.02-12.56-12.8-26.4-15.96-40.86-2.1-9.61-3.53-19.33-4.1-29.15-.49-8.33-.75-16.67-.98-25.01-.14-4.83-.03-9.66-.02-14.49,0-2.19,.33-2.59,2.39-3.26,16.55-5.41,33.14-10.68,49.62-16.29,12.25-4.17,24.35-8.78,35.93-14.63,2.03-1.02,3.97-2.22,5.93-3.38,.87-.52,1.72-.64,2.59-.1,8.32,5.18,17.37,8.81,26.46,12.34,20.9,8.12,42.2,15.04,63.63,21.58,3.99,1.22,4.01,1.17,4.04,5.31,0,1.36,.02,2.72,.03,4.08,0,1.32,0,2.64,0,3.96h.14Zm-61.97,28.16c1.34-.2,2.36-.36,3.39-.51,8.21-1.27,16.41-2.54,24.62-3.79,1.08-.17,1.89-.67,2.26-1.71,.37-1.04-.38-1.63-1.02-2.23-6.31-5.88-12.65-11.73-18.94-17.64-.95-.89-1.95-1.14-3.17-.92-2.16,.39-4.33,.76-6.49,1.13-6.26,1.08-12.51,2.17-18.77,3.24-1.08,.19-2.01,.55-2.37,1.72-.34,1.1,.42,1.7,1.08,2.34,2.25,2.21,4.52,4.41,6.77,6.61,3.66,3.57,7.3,7.16,10.98,10.71,.52,.5,1.23,.78,1.67,1.05Zm-48.2,41.1c0,5.55,.02,11.11-.02,16.66,0,1.07,.28,1.51,1.42,1.46,1.71-.08,3.43-.02,5.15-.02,5.83,0,11.67-.02,17.5,.02,1.02,0,1.46-.29,1.4-1.36-.07-1.15-.01-2.32-.02-3.48q0-1.87-1.82-1.87c-4.87,0-9.75-.02-14.62,.01-.97,0-1.37-.3-1.33-1.3,.06-1.76,.01-3.52,.02-5.27,0-1.64,0-1.65,1.69-1.65,4.75,0,9.51-.03,14.26,.02,1.11,0,1.62-.31,1.55-1.5-.08-1.23-.08-2.48,0-3.71,.08-1.16-.36-1.51-1.51-1.5-4.87,.05-9.75,0-14.62,.04-1.03,0-1.44-.3-1.39-1.37,.07-1.47,.02-2.96,.02-4.43q0-1.93,1.89-1.93c4.83,0,9.67-.02,14.5,.02,1.03,0,1.45-.33,1.39-1.38-.07-1.32-.07-2.64,0-3.95,.06-1.07-.37-1.37-1.4-1.36-7.55,.03-15.1,.04-22.65,0-1.12,0-1.43,.39-1.42,1.46,.04,5.47,.02,10.95,.02,16.42Zm-30.59,7.38c-.23,.18-.34,.24-.41,.33-.87,1.19-1.74,2.39-2.61,3.58q-1.44,1.98,.5,3.43c.16,.12,.32,.24,.49,.35,6.08,4.06,12.71,4.77,19.6,2.81,5-1.42,7.76-5.26,7.93-10.35,.15-4.43-2.24-7.74-7.24-9.57-2.5-.92-5.15-1.42-7.72-2.17-1.41-.41-2.86-.8-4.17-1.45-2.15-1.06-2.28-3.68-.21-4.9,1.05-.62,2.39-.98,3.61-1.02,3.59-.13,6.85,.99,9.69,3.21,.72,.56,1.11,.5,1.62-.23,.94-1.34,1.96-2.62,2.97-3.91,.44-.56,.53-1-.13-1.49-6.09-4.56-12.81-5.62-19.93-3.19-4.6,1.57-7.18,5.44-7.17,9.78,.02,4.38,2.3,7.41,7.23,9.2,2.28,.83,4.7,1.26,7.03,1.95,1.64,.49,3.33,.93,4.83,1.72,2.19,1.15,2.3,3.76,.29,5.22-.78,.57-1.77,.93-2.72,1.17-2.23,.57-4.44,.18-6.62-.41-2.65-.71-4.84-2.21-6.88-4.07Zm18.6-52.85c0,5.59,.01,11.19-.01,16.78,0,.91,.26,1.29,1.23,1.26,1.68-.06,3.36-.07,5.03,0,1.07,.05,1.47-.28,1.45-1.41-.07-3.27,.03-6.55-.05-9.83-.03-1.22,.36-1.58,1.56-1.57,3.19,.03,6.4,.12,9.57-.18,6.3-.6,10.53-5.69,10.15-11.91-.4-6.63-4.97-11.06-11.46-11.09-5.35-.02-10.7,.02-16.06-.02-1.09,0-1.45,.32-1.44,1.42,.05,5.51,.02,11.03,.02,16.54Zm-4.69,9.83c-1.9-.92-3.73-1.78-5.53-2.72-.77-.4-1.15-.24-1.64,.46-3.25,4.69-9.69,5.77-14.29,2.38-3.68-2.7-4.97-6.51-4.76-10.92,.23-4.82,3.31-9.03,7.61-10.35,4.04-1.24,8.89-.27,11.66,4.07,.15,.23,.65,.49,.83,.41,2.05-.95,4.07-1.97,6.09-2.96-2.97-6.09-9.9-10.06-18.88-8.59-8.53,1.4-14.85,8.56-15.25,16.98-.5,10.61,5.81,17.7,13.94,19.58,8.73,2.02,16.3-1.05,20.22-8.35Zm80.48,45.52c-1.82-.88-3.65-1.74-5.45-2.66-.75-.38-1.15-.29-1.65,.44-2.43,3.53-6.42,5.02-10.61,4.05-4.41-1.02-7.47-4.52-8.31-9.48-.84-4.96,1.28-10.03,5.19-12.42,4.23-2.59,10.62-2.03,13.82,2.84,.19,.3,.77,.67,.97,.58,2.05-.93,4.07-1.96,6.08-2.95-3.18-6.43-10.61-10.28-19.64-8.42-8.36,1.72-14.93,8.93-14.51,19.52,.34,8.48,6.68,15.77,15.32,17.18,8.91,1.45,15.69-2.42,18.8-8.67Zm.93-51.41c-.53,.03-.76,.02-.99,.06-4.73,.72-9.47,1.44-14.2,2.18-1.74,.27-3.2-.15-4.47-1.42-2.97-2.96-5.98-5.87-8.99-8.8-.29-.29-.62-.53-1.06-.9-.81,2.23-1.45,4.29-2.29,6.26-1.57,3.69,.07,6.37,2.64,8.22,2.17,1.57,4.37,3.09,6.56,4.62,1.62,1.13,3.42,1.73,5.4,1.68,2.55-.07,5.1-.21,7.66-.25,3.64-.06,6.14-1.6,7.28-5.21,.67-2.12,1.58-4.16,2.46-6.44Z"/><path class="cls-1" d="M176.26,91.6c-.5-.13-.88-.22-1.24-.34-5.88-1.92-11.76-3.87-17.65-5.76-.93-.3-1.19-.75-1.24-1.7-1.1-19.32-8.06-36.05-22.37-49.33-9.68-8.99-21.18-14.23-34.41-15.15-14.63-1.02-27.73,3.24-39.14,12.39-13.31,10.67-21.1,24.7-24.34,41.33-.69,3.55-.88,7.2-1.27,10.81-.08,.71-.12,1.29-.97,1.56-6.15,1.99-12.3,4.01-18.44,6.02-.26,.08-.53,.09-.66,.12,0-2.7-.17-5.38,.03-8.03,.92-12.1,3.81-23.72,9.02-34.71C31.78,31.48,43.89,17.74,60.91,8.61,70.77,3.31,81.33,.42,92.54,.05c19.6-.66,36.77,5.72,51.55,18.38,17.11,14.65,26.87,33.51,30.79,55.54,.95,5.36,1.45,10.76,1.44,16.21,0,.43-.04,.86-.06,1.43Z"/><path class="cls-3" d="M80.64,183.87c0-5.47,.02-10.95-.02-16.42,0-1.07,.29-1.47,1.42-1.46,7.55,.04,15.1,.04,22.65,0,1.03,0,1.46,.3,1.4,1.36-.07,1.31-.07,2.64,0,3.95,.05,1.06-.36,1.39-1.39,1.38-4.83-.04-9.67-.02-14.5-.02q-1.88,0-1.89,1.93c0,1.48,.05,2.96-.02,4.43-.05,1.06,.35,1.38,1.39,1.37,4.87-.04,9.75,.01,14.62-.04,1.14-.01,1.58,.34,1.51,1.5-.08,1.23-.08,2.48,0,3.71,.07,1.19-.44,1.51-1.55,1.5-4.75-.04-9.51-.02-14.26-.02-1.68,0-1.68,0-1.69,1.65,0,1.76,.04,3.52-.02,5.27-.03,1.01,.37,1.31,1.33,1.3,4.87-.03,9.75-.02,14.62-.01q1.82,0,1.82,1.87c0,1.16-.05,2.32,.02,3.48,.06,1.07-.38,1.37-1.4,1.36-5.83-.04-11.66-.02-17.5-.02-1.72,0-3.44-.06-5.15,.02-1.13,.05-1.42-.4-1.42-1.46,.04-5.55,.02-11.11,.02-16.66Z"/><path class="cls-3" d="M50.05,191.25c2.04,1.86,4.23,3.36,6.88,4.07,2.18,.58,4.39,.98,6.62,.41,.95-.24,1.93-.61,2.72-1.17,2.01-1.46,1.91-4.06-.29-5.22-1.5-.79-3.19-1.23-4.83-1.72-2.33-.69-4.75-1.12-7.03-1.95-4.93-1.79-7.21-4.82-7.23-9.2-.02-4.34,2.57-8.21,7.17-9.78,7.12-2.43,13.84-1.37,19.93,3.19,.66,.49,.57,.92,.13,1.49-1.01,1.29-2.03,2.57-2.97,3.91-.51,.73-.9,.79-1.62,.23-2.84-2.21-6.1-3.33-9.69-3.21-1.22,.04-2.56,.41-3.61,1.02-2.08,1.22-1.94,3.84,.21,4.9,1.31,.64,2.76,1.03,4.17,1.45,2.57,.75,5.22,1.25,7.72,2.17,5,1.83,7.39,5.14,7.24,9.57-.17,5.1-2.93,8.94-7.93,10.35-6.89,1.95-13.52,1.25-19.6-2.81-.17-.11-.33-.23-.49-.35q-1.94-1.45-.5-3.43c.87-1.19,1.73-2.39,2.61-3.58,.07-.09,.18-.15,.41-.33Z"/><path class="cls-3" d="M144.46,193.75c-3.11,6.26-9.89,10.13-18.8,8.67-8.64-1.41-14.98-8.7-15.32-17.18-.42-10.59,6.16-17.8,14.51-19.52,9.03-1.86,16.46,1.99,19.64,8.42-2.02,1-4.03,2.02-6.08,2.95-.2,.09-.77-.29-.97-.58-3.2-4.87-9.6-5.43-13.82-2.84-3.91,2.39-6.03,7.46-5.19,12.42,.84,4.96,3.9,8.46,8.31,9.48,4.18,.97,8.18-.52,10.61-4.05,.5-.73,.91-.82,1.65-.44,1.8,.92,3.63,1.78,5.45,2.66Z"/><path class="cls-4" d="M81.26,127.14c1.28,0,2.56-.06,3.83,.01,2.55,.14,4.41,1.97,4.63,4.49,.21,2.43-1.3,4.77-3.77,5.06-2.95,.34-5.97,.22-8.95,.24-.22,0-.62-.5-.62-.78-.05-2.71-.02-5.43-.03-8.14,0-.69,.36-.9,.97-.9,1.32,0,2.63,0,3.95,0v.03Z"/></svg>